<?xml version="1.0" standalone="no"?>
<!DOCTYPE svg PUBLIC "-//W3C//DTD SVG 1.1//EN" "http://www.w3.org/Graphics/SVG/1.1/DTD/svg11.dtd" >
<svg xmlns="http://www.w3.org/2000/svg" xmlns:xlink="http://www.w3.org/1999/xlink" version="1.1" viewBox="-10 0 522 512">
   <path fill="currentColor"
d="M416 255q0 44 -21.5 80.5t-58.5 58.5t-81 22q-52 0 -93 -30.5t-57 -78.5l123 -65q4 -2 8 0.5t4 6.5v32q0 4 3.5 6.5t7.5 0.5l151 -71q4 -1 7 0.5t4 5.5q3 12 3 32zM281 66q-62 -8 -115 20q-52 28 -80 80q-28 53 -20 115q5 42 28 78t59 59t78 28q62 8 115 -20
q52 -28 80 -80q28 -54 20 -115q-5 -42 -28 -78t-59 -59t-78 -28z" />
</svg>
