<?xml version="1.0" standalone="no"?>
<!DOCTYPE svg PUBLIC "-//W3C//DTD SVG 1.1//EN" "http://www.w3.org/Graphics/SVG/1.1/DTD/svg11.dtd" >
<svg xmlns="http://www.w3.org/2000/svg" xmlns:xlink="http://www.w3.org/1999/xlink" version="1.1" viewBox="-10 0 532 512">
   <path fill="currentColor"
d="M391 272q11 -4 26 9t23.5 33.5t7.5 37.5t-10 22l-125 56q-14 5 -30 -9t-24.5 -38t-6 -44t15.5 -26zM321 361q-5 -14 -14 -22t-17 -5.5t-10 14t3 25.5t14.5 22t17 5.5t9.5 -14t-3 -25.5zM123 81q4 -2 8 -1l370 123q10 4 11 14v91q0 10 -9 15l-24 9q-3 -15 -9 -29
q-10 -26 -29 -43q-22 -21 -45 -21q-6 0 -12 2l-124 41q-22 7 -33 29l-1 4l-215 -72q-10 -3 -11 -13v-92q0 -10 9 -14zM125 185q-5 -1 -9 0l-65 24q-3 1 -3 4t2 4l162 58q4 1 9 0l64 -24q3 -1 3.5 -4t-2.5 -5z" />
</svg>
