<?xml version="1.0" standalone="no"?>
<!DOCTYPE svg PUBLIC "-//W3C//DTD SVG 1.1//EN" "http://www.w3.org/Graphics/SVG/1.1/DTD/svg11.dtd" >
<svg xmlns="http://www.w3.org/2000/svg" xmlns:xlink="http://www.w3.org/1999/xlink" version="1.1" viewBox="-10 0 522 512">
   <path fill="currentColor"
d="M343 259q-39 -32 -70 -71q-23 -30 -31.5 -50t-2 -27t25.5 1.5t49 31.5q40 32 71 73q23 30 31 50t1.5 26t-26 -2.5t-48.5 -31.5zM448 276v-4q0 -14 -12 -36q-21 -38 -62 -80.5t-79 -63.5q-20 -11 -33 -12h-6q-35 0 -82 35q-44 32 -76 78q-34 48 -34 83q0 51 23 94t63 70
q12 8 27 8h132q15 0 28 -9q45 -33 77 -79q34 -48 34 -84z" />
</svg>
