<?xml version="1.0" standalone="no"?>
<!DOCTYPE svg PUBLIC "-//W3C//DTD SVG 1.1//EN" "http://www.w3.org/Graphics/SVG/1.1/DTD/svg11.dtd" >
<svg xmlns="http://www.w3.org/2000/svg" xmlns:xlink="http://www.w3.org/1999/xlink" version="1.1" viewBox="-10 0 522 512">
   <path fill="currentColor"
d="M256 192q-27 0 -45.5 18.5t-18.5 45.5t18.5 45.5t45.5 18.5t45.5 -18.5t18.5 -45.5t-18.5 -45.5t-45.5 -18.5zM256 352q-26 0 -48 -13t-35 -35t-13 -48t13 -48t35 -35t48 -13t48 13t35 35t13 48t-13 48t-35 35t-48 13zM256 128q-35 0 -64.5 17t-46.5 46.5t-17 64.5
t17 64.5t46.5 46.5t64.5 17t64.5 -17t46.5 -46.5t17 -64.5t-17 -64.5t-46.5 -46.5t-64.5 -17zM256 416q-43 0 -80 -21.5t-58.5 -58.5t-21.5 -80t21.5 -80t58.5 -58.5t80 -21.5t80 21.5t58.5 58.5t21.5 80t-21.5 80t-58.5 58.5t-80 21.5zM256 64q-52 0 -96 26t-70 70t-26 96
t26 96t70 70t96 26t96 -26t70 -70t26 -96t-26 -96t-70 -70t-96 -26z" />
</svg>
