<?xml version="1.0" standalone="no"?>
<!DOCTYPE svg PUBLIC "-//W3C//DTD SVG 1.1//EN" "http://www.w3.org/Graphics/SVG/1.1/DTD/svg11.dtd" >
<svg xmlns="http://www.w3.org/2000/svg" xmlns:xlink="http://www.w3.org/1999/xlink" version="1.1" viewBox="-10 0 532 512">
   <path fill="currentColor"
d="M478 295q-24 12 -53 8q-17 -2 -43 -13l-349 -143l-7 -4q-6 -5 -5.5 -10.5t15.5 -11.5q27 -10 57 -5q19 4 55 18l331 133q11 6 12 12q3 8 -13 16zM512 280q-1 -21 -29 -33l-351 -141q-24 -10 -61 -10q-26 0 -42 6q-27 11 -29 31v0v97q1 19 25 29l361 148q21 9 50 9t50 -9
q26 -12 26 -33v-94z" />
</svg>
