<?xml version="1.0" standalone="no"?>
<!DOCTYPE svg PUBLIC "-//W3C//DTD SVG 1.1//EN" "http://www.w3.org/Graphics/SVG/1.1/DTD/svg11.dtd" >
<svg xmlns="http://www.w3.org/2000/svg" xmlns:xlink="http://www.w3.org/1999/xlink" version="1.1" viewBox="-10 0 522 512">
   <path fill="currentColor"
d="M256 192q27 0 45.5 18.5t18.5 45.5t-18.5 45.5t-45.5 18.5t-45.5 -18.5t-18.5 -45.5t18.5 -45.5t45.5 -18.5zM352 96q7 0 11.5 4.5t4.5 11.5t-4.5 11.5t-11.5 4.5t-11.5 -4.5t-4.5 -11.5t4.5 -11.5t11.5 -4.5zM256 352q-26 0 -48 -13t-35 -35t-13 -48t13 -48t35 -35
t48 -13t48 13t35 35t13 48t-13 48t-35 35t-48 13zM144 112q0 -7 4.5 -11.5t11.5 -4.5t11.5 4.5t4.5 11.5t-4.5 11.5t-11.5 4.5t-11.5 -4.5t-4.5 -11.5zM256 96q7 0 11.5 4.5t4.5 11.5t-4.5 11.5t-11.5 4.5t-11.5 -4.5t-4.5 -11.5t4.5 -11.5t11.5 -4.5zM384 64h-256
q-26 0 -45 19t-19 45v256q0 26 19 45t45 19h256q26 0 45 -19t19 -45v-256q0 -26 -19 -45t-45 -19z" />
</svg>
