<?xml version="1.0" standalone="no"?>
<!DOCTYPE svg PUBLIC "-//W3C//DTD SVG 1.1//EN" "http://www.w3.org/Graphics/SVG/1.1/DTD/svg11.dtd" >
<svg xmlns="http://www.w3.org/2000/svg" xmlns:xlink="http://www.w3.org/1999/xlink" version="1.1" viewBox="-10 0 532 512">
   <path fill="currentColor"
d="M470 222q6 -2 7.5 -6.5t-3.5 -9.5l-46 -44q-5 -4 -13 -6t-14 0l-366 106q-7 2 -8 6.5t3 9.5l47 47q4 5 12 7t14 0zM0 263q0 -7 4.5 -13t10.5 -7l393 -114q6 -2 14 0t13 6l65 63q5 5 8.5 13t3.5 15v44q0 7 -4.5 13t-10.5 8l-394 123q-6 2 -15 2t-15 -2l-58 -17
q-6 -2 -10.5 -8t-4.5 -13v-113z" />
</svg>
