<?xml version="1.0" standalone="no"?>
<!DOCTYPE svg PUBLIC "-//W3C//DTD SVG 1.1//EN" "http://www.w3.org/Graphics/SVG/1.1/DTD/svg11.dtd" >
<svg xmlns="http://www.w3.org/2000/svg" xmlns:xlink="http://www.w3.org/1999/xlink" version="1.1" viewBox="-10 0 522 512">
   <path fill="currentColor"
d="M348 229q-14 5 -31 -10.5t-26.5 -42t-6 -48.5t18 -27.5t31.5 10t26 42t5.5 49t-17.5 27.5zM390 142q-14 -39 -39 -61.5t-47 -14.5l-190 88q-16 6 -18 34t11.5 61.5t37 54t39.5 13.5l24 -9v60q-35 2 -61 8.5t-33 15.5q-2 3 -2 6v20q0 12 33 21t79 9t79 -9t33 -21v-20
q0 -11 -27.5 -19.5t-68.5 -10.5v-70l132 -45q21 -7 26.5 -39.5t-8.5 -71.5z" />
</svg>
