<?xml version="1.0" standalone="no"?>
<!DOCTYPE svg PUBLIC "-//W3C//DTD SVG 1.1//EN" "http://www.w3.org/Graphics/SVG/1.1/DTD/svg11.dtd" >
<svg xmlns="http://www.w3.org/2000/svg" xmlns:xlink="http://www.w3.org/1999/xlink" version="1.1" viewBox="-10 0 522 512">
   <path fill="currentColor"
d="M115 114q10 -15 49.5 -24.5t91.5 -9.5q39 0 72 5.5t52.5 15.5t19.5 21.5t-19.5 21t-52.5 15.5t-72 6t-72 -6t-52.5 -15.5t-19.5 -21.5q0 -4 3 -8zM188 262q-45 -33 -57 -101q24 11 62 16q31 4 63 4t63 -4q38 -5 62 -16q-12 68 -57 101q-4 3 -4 18v59q0 12 -7 21
q-15 16 -57 16t-57 -16q-7 -9 -7 -21v-59q0 -15 -4 -18zM272 416q0 7 4.5 11.5t11.5 4.5t11.5 -4.5t4.5 -11.5v-33q-12 6 -32 8v25zM224 432q-7 0 -11.5 -4.5t-4.5 -11.5v-33q12 6 32 8v25q0 7 -4.5 11.5t-11.5 4.5z" />
</svg>
