<?xml version="1.0" standalone="no"?>
<!DOCTYPE svg PUBLIC "-//W3C//DTD SVG 1.1//EN" "http://www.w3.org/Graphics/SVG/1.1/DTD/svg11.dtd" >
<svg xmlns="http://www.w3.org/2000/svg" xmlns:xlink="http://www.w3.org/1999/xlink" version="1.1" viewBox="-10 0 522 512">
   <path fill="currentColor"
d="M350 123q-19 5 -46 5t-45.5 -5t-18.5 -11.5t19 -11t45 -4.5t45 4.5t19 11t-18 11.5zM447 236l-43 -145v-2q-4 -7 -19 -13t-40 -9q-40 -6 -80 0q-26 3 -41 9t-18 13l-45 147q-1 4 -1 6q3 19 35.5 31.5t89.5 14.5q-8 28 -31.5 46t-54.5 18t-55 -20q-1 -37 -7.5 -62
t-14.5 -29q-1 -1 -3 -1h-30q-2 0 -3 1q-9 4 -15 30q-7 31 -7 73t7 73q6 26 15 30q1 1 3 1h30q2 0 3 -1q8 -4 15 -29q4 -19 6 -48q27 14 57 14q43 0 76 -27.5t42 -68.5q59 -2 94 -15q33 -12 36 -31q0 -2 -1 -6z" />
</svg>
