<?xml version="1.0" standalone="no"?>
<!DOCTYPE svg PUBLIC "-//W3C//DTD SVG 1.1//EN" "http://www.w3.org/Graphics/SVG/1.1/DTD/svg11.dtd" >
<svg xmlns="http://www.w3.org/2000/svg" xmlns:xlink="http://www.w3.org/1999/xlink" version="1.1" viewBox="-10 0 522 512">
   <path fill="currentColor"
d="M304 368l-8 39q-1 5 -6 9l-6 4l-8 6q-6 6 -15 6h-10q-9 0 -15 -6l-7 -6l-7 -4q-5 -4 -6 -10l-8 -38l9 1q18 1 39 1t39 -1zM314 306l-7 46l-13 1q-18 1 -38 1t-38 -1l-13 -1l-7 -46q27 14 58 14t58 -14zM256 80q30 0 56 15t41 41t15 56q0 42 -27.5 73.5t-68.5 37.5v-87
l32 -32h-96l32 32v87q-39 -6 -66 -35t-30 -68v-12q1 -29 16.5 -54t40.5 -39.5t55 -14.5z" />
</svg>
