<svg xmlns="http://www.w3.org/2000/svg" xmlns:v="https://svgstorm.com"
viewBox = "0 0 512 512"
width="512"
height="512">
<g fill="None" fill-opacity="0.0" stroke="#000000" stroke-opacity="0.00" stroke-width="0.3"><path d="
M 0.00 264.00 
C 4.51 210.35 21.47 161.45 68.75 128.75 C 116.04 96.05 184.22 97.31 241.00 105.00
C 245.16 70.49 239.07 35.48 215.00 10.00
C 220.08 6.83 225.69 3.89 230.00 0.00
L 0.00 0.00
L 0.00 264.00 Z"/>
</g>
<g fill="None" fill-opacity="0.0" stroke="#000000" stroke-opacity="1.00" stroke-width="0.3"><path d="
M 0.00 264.00 
L 0.00 318.00
C 4.29 372.90 30.31 420.92 74.75 456.25 C 119.19 491.58 175.50 509.37 232.00 512.00
L 287.00 512.00
C 341.10 508.98 398.84 493.37 438.75 454.75 C 478.67 416.14 508.70 373.31 512.00 318.00
L 512.00 274.00
C 508.09 223.12 497.26 172.43 455.75 137.25 C 414.25 102.07 353.56 98.20 301.00 108.00
C 290.29 66.58 271.15 22.02 231.00 0.00
L 230.00 0.00
C 225.69 3.89 220.08 6.83 215.00 10.00
C 239.07 35.48 245.16 70.49 241.00 105.00
C 184.22 97.31 116.04 96.05 68.75 128.75 C 21.47 161.45 4.51 210.35 0.00 264.00
M 209.00 261.00 
C 182.94 262.34 146.22 276.88 121.75 261.25 C 97.29 245.61 116.56 206.08 125.00 187.00
C 138.91 198.54 151.08 213.37 164.75 226.25 C 178.42 239.12 196.13 248.62 209.00 261.00
M 385.00 187.00 
C 393.46 204.66 398.93 218.19 399.00 239.00 C 399.07 259.81 380.96 268.77 361.00 267.00 C 341.04 265.23 319.25 266.11 300.00 261.00
C 313.80 249.81 330.29 238.92 344.25 226.25 C 358.20 213.58 371.35 199.14 385.00 187.00
M 257.00 283.00 
C 266.87 299.90 279.86 315.68 289.00 333.00
C 267.15 327.89 243.93 328.45 222.00 333.00
C 233.56 316.45 243.27 297.05 257.00 283.00
M 205.00 402.00 
C 206.18 393.66 200.55 376.24 212.00 377.00 C 223.45 377.76 232.02 377.63 243.00 378.00 C 253.98 378.37 265.48 377.17 276.00 378.00 C 286.52 378.83 296.27 375.08 306.01 376.01 C 315.75 376.94 307.25 396.58 310.00 403.00
C 321.43 401.02 337.67 403.09 345.92 394.92 C 354.17 386.75 350.07 369.54 361.22 366.22 C 372.37 362.90 383.76 359.94 394.23 355.23 C 404.70 350.52 413.90 346.16 424.00 341.00
C 403.57 400.08 341.59 436.52 282.00 442.00
C 277.80 432.13 274.27 421.63 272.00 411.00
C 261.33 411.00 250.67 411.00 240.00 411.00
C 236.37 421.12 233.67 431.56 231.00 442.00
C 170.36 437.69 108.98 399.83 87.00 341.00
C 97.89 344.72 105.13 351.85 116.69 355.31 C 128.26 358.76 137.80 364.71 150.67 366.33 C 163.55 367.94 161.59 383.50 168.77 393.23 C 175.95 402.96 193.46 401.01 205.00 402.00 Z"/>
</g>
<g fill="None" fill-opacity="0.0" stroke="#000000" stroke-opacity="0.00" stroke-width="0.3"><path d="
M 512.00 274.00 
L 512.00 0.00
L 231.00 0.00
C 271.15 22.02 290.29 66.58 301.00 108.00
C 353.56 98.20 414.25 102.07 455.75 137.25 C 497.26 172.43 508.09 223.12 512.00 274.00 Z"/>
</g>
<g fill="None" fill-opacity="0.0" stroke="#000000" stroke-opacity="0.00" stroke-width="0.3"><path d="
M 209.00 261.00 
C 196.13 248.62 178.42 239.12 164.75 226.25 C 151.08 213.37 138.91 198.54 125.00 187.00
C 116.56 206.08 97.29 245.61 121.75 261.25 C 146.22 276.88 182.94 262.34 209.00 261.00 Z"/>
</g>
<g fill="None" fill-opacity="0.0" stroke="#000000" stroke-opacity="0.00" stroke-width="0.3"><path d="
M 385.00 187.00 
C 371.35 199.14 358.20 213.58 344.25 226.25 C 330.29 238.92 313.80 249.81 300.00 261.00
C 319.25 266.11 341.04 265.23 361.00 267.00 C 380.96 268.77 399.07 259.81 399.00 239.00 C 398.93 218.19 393.46 204.66 385.00 187.00 Z"/>
</g>
<g fill="None" fill-opacity="0.0" stroke="#000000" stroke-opacity="0.00" stroke-width="0.3"><path d="
M 257.00 283.00 
C 243.27 297.05 233.56 316.45 222.00 333.00
C 243.93 328.45 267.15 327.89 289.00 333.00
C 279.86 315.68 266.87 299.90 257.00 283.00 Z"/>
</g>
<g fill="None" fill-opacity="0.0" stroke="#000000" stroke-opacity="0.00" stroke-width="0.3"><path d="
M 0.00 512.00 
L 232.00 512.00
C 175.50 509.37 119.19 491.58 74.75 456.25 C 30.31 420.92 4.29 372.90 0.00 318.00
L 0.00 512.00 Z"/>
</g>
<g fill="None" fill-opacity="0.0" stroke="#000000" stroke-opacity="0.00" stroke-width="0.3"><path d="
M 287.00 512.00 
L 512.00 512.00
L 512.00 318.00
C 508.70 373.31 478.67 416.14 438.75 454.75 C 398.84 493.37 341.10 508.98 287.00 512.00 Z"/>
</g>
<g fill="None" fill-opacity="0.0" stroke="#000000" stroke-opacity="0.00" stroke-width="0.3"><path d="
M 205.00 402.00 
C 193.46 401.01 175.95 402.96 168.77 393.23 C 161.59 383.50 163.55 367.94 150.67 366.33 C 137.80 364.71 128.26 358.76 116.69 355.31 C 105.13 351.85 97.89 344.72 87.00 341.00
C 108.98 399.83 170.36 437.69 231.00 442.00
C 233.67 431.56 236.37 421.12 240.00 411.00
C 250.67 411.00 261.33 411.00 272.00 411.00
C 274.27 421.63 277.80 432.13 282.00 442.00
C 341.59 436.52 403.57 400.08 424.00 341.00
C 413.90 346.16 404.70 350.52 394.23 355.23 C 383.76 359.94 372.37 362.90 361.22 366.22 C 350.07 369.54 354.17 386.75 345.92 394.92 C 337.67 403.09 321.43 401.02 310.00 403.00
C 307.25 396.58 315.75 376.94 306.01 376.01 C 296.27 375.08 286.52 378.83 276.00 378.00 C 265.48 377.17 253.98 378.37 243.00 378.00 C 232.02 377.63 223.45 377.76 212.00 377.00 C 200.55 376.24 206.18 393.66 205.00 402.00 Z"/>
</g>
<g fill="#000000" fill-opacity="0.00" stroke="None">
<path d="
M 0.00 264.00 
C 4.51 210.35 21.47 161.45 68.75 128.75 C 116.04 96.05 184.22 97.31 241.00 105.00
C 245.16 70.49 239.07 35.48 215.00 10.00
C 220.08 6.83 225.69 3.89 230.00 0.00
L 0.00 0.00
L 0.00 264.00 Z"/>
</g>
<g fill="#000000" fill-opacity="1.00" stroke="None">
<path d="
M 0.00 264.00 
L 0.00 318.00
C 4.29 372.90 30.31 420.92 74.75 456.25 C 119.19 491.58 175.50 509.37 232.00 512.00
L 287.00 512.00
C 341.10 508.98 398.84 493.37 438.75 454.75 C 478.67 416.14 508.70 373.31 512.00 318.00
L 512.00 274.00
C 508.09 223.12 497.26 172.43 455.75 137.25 C 414.25 102.07 353.56 98.20 301.00 108.00
C 290.29 66.58 271.15 22.02 231.00 0.00
L 230.00 0.00
C 225.69 3.89 220.08 6.83 215.00 10.00
C 239.07 35.48 245.16 70.49 241.00 105.00
C 184.22 97.31 116.04 96.05 68.75 128.75 C 21.47 161.45 4.51 210.35 0.00 264.00
M 209.00 261.00 
C 182.94 262.34 146.22 276.88 121.75 261.25 C 97.29 245.61 116.56 206.08 125.00 187.00
C 138.91 198.54 151.08 213.37 164.75 226.25 C 178.42 239.12 196.13 248.62 209.00 261.00
M 385.00 187.00 
C 393.46 204.66 398.93 218.19 399.00 239.00 C 399.07 259.81 380.96 268.77 361.00 267.00 C 341.04 265.23 319.25 266.11 300.00 261.00
C 313.80 249.81 330.29 238.92 344.25 226.25 C 358.20 213.58 371.35 199.14 385.00 187.00
M 257.00 283.00 
C 266.87 299.90 279.86 315.68 289.00 333.00
C 267.15 327.89 243.93 328.45 222.00 333.00
C 233.56 316.45 243.27 297.05 257.00 283.00
M 205.00 402.00 
C 206.18 393.66 200.55 376.24 212.00 377.00 C 223.45 377.76 232.02 377.63 243.00 378.00 C 253.98 378.37 265.48 377.17 276.00 378.00 C 286.52 378.83 296.27 375.08 306.01 376.01 C 315.75 376.94 307.25 396.58 310.00 403.00
C 321.43 401.02 337.67 403.09 345.92 394.92 C 354.17 386.75 350.07 369.54 361.22 366.22 C 372.37 362.90 383.76 359.94 394.23 355.23 C 404.70 350.52 413.90 346.16 424.00 341.00
C 403.57 400.08 341.59 436.52 282.00 442.00
C 277.80 432.13 274.27 421.63 272.00 411.00
C 261.33 411.00 250.67 411.00 240.00 411.00
C 236.37 421.12 233.67 431.56 231.00 442.00
C 170.36 437.69 108.98 399.83 87.00 341.00
C 97.89 344.72 105.13 351.85 116.69 355.31 C 128.26 358.76 137.80 364.71 150.67 366.33 C 163.55 367.94 161.59 383.50 168.77 393.23 C 175.95 402.96 193.46 401.01 205.00 402.00 Z"/>
</g>
<g fill="#000000" fill-opacity="0.00" stroke="None">
<path d="
M 512.00 274.00 
L 512.00 0.00
L 231.00 0.00
C 271.15 22.02 290.29 66.58 301.00 108.00
C 353.56 98.20 414.25 102.07 455.75 137.25 C 497.26 172.43 508.09 223.12 512.00 274.00 Z"/>
</g>
<g fill="#000000" fill-opacity="0.00" stroke="None">
<path d="
M 209.00 261.00 
C 196.13 248.62 178.42 239.12 164.75 226.25 C 151.08 213.37 138.91 198.54 125.00 187.00
C 116.56 206.08 97.29 245.61 121.75 261.25 C 146.22 276.88 182.94 262.34 209.00 261.00 Z"/>
</g>
<g fill="#000000" fill-opacity="0.00" stroke="None">
<path d="
M 385.00 187.00 
C 371.35 199.14 358.20 213.58 344.25 226.25 C 330.29 238.92 313.80 249.81 300.00 261.00
C 319.25 266.11 341.04 265.23 361.00 267.00 C 380.96 268.77 399.07 259.81 399.00 239.00 C 398.93 218.19 393.46 204.66 385.00 187.00 Z"/>
</g>
<g fill="#000000" fill-opacity="0.00" stroke="None">
<path d="
M 257.00 283.00 
C 243.27 297.05 233.56 316.45 222.00 333.00
C 243.93 328.45 267.15 327.89 289.00 333.00
C 279.86 315.68 266.87 299.90 257.00 283.00 Z"/>
</g>
<g fill="#000000" fill-opacity="0.00" stroke="None">
<path d="
M 0.00 512.00 
L 232.00 512.00
C 175.50 509.37 119.19 491.58 74.75 456.25 C 30.31 420.92 4.29 372.90 0.00 318.00
L 0.00 512.00 Z"/>
</g>
<g fill="#000000" fill-opacity="0.00" stroke="None">
<path d="
M 287.00 512.00 
L 512.00 512.00
L 512.00 318.00
C 508.70 373.31 478.67 416.14 438.75 454.75 C 398.84 493.37 341.10 508.98 287.00 512.00 Z"/>
</g>
<g fill="#000000" fill-opacity="0.00" stroke="None">
<path d="
M 205.00 402.00 
C 193.46 401.01 175.95 402.96 168.77 393.23 C 161.59 383.50 163.55 367.94 150.67 366.33 C 137.80 364.71 128.26 358.76 116.69 355.31 C 105.13 351.85 97.89 344.72 87.00 341.00
C 108.98 399.83 170.36 437.69 231.00 442.00
C 233.67 431.56 236.37 421.12 240.00 411.00
C 250.67 411.00 261.33 411.00 272.00 411.00
C 274.27 421.63 277.80 432.13 282.00 442.00
C 341.59 436.52 403.57 400.08 424.00 341.00
C 413.90 346.16 404.70 350.52 394.23 355.23 C 383.76 359.94 372.37 362.90 361.22 366.22 C 350.07 369.54 354.17 386.75 345.92 394.92 C 337.67 403.09 321.43 401.02 310.00 403.00
C 307.25 396.58 315.75 376.94 306.01 376.01 C 296.27 375.08 286.52 378.83 276.00 378.00 C 265.48 377.17 253.98 378.37 243.00 378.00 C 232.02 377.63 223.45 377.76 212.00 377.00 C 200.55 376.24 206.18 393.66 205.00 402.00 Z"/>
</g>
</svg>