<?xml version="1.0" standalone="no"?>
<!DOCTYPE svg PUBLIC "-//W3C//DTD SVG 1.1//EN" "http://www.w3.org/Graphics/SVG/1.1/DTD/svg11.dtd" >
<svg xmlns="http://www.w3.org/2000/svg" xmlns:xlink="http://www.w3.org/1999/xlink" version="1.1" viewBox="-10 0 522 512">
   <path fill="currentColor"
d="M256 144q7 0 11.5 -4.5t4.5 -11.5v-48q0 -7 -4.5 -11.5t-11 -4.5t-11.5 4.5t-5 11.5v48q0 7 5 11.5t11 4.5zM256 176q-27 0 -50 18q-14 11 -22 27t-8 35q0 33 23.5 56.5t56.5 23.5t56.5 -23.5t23.5 -56.5t-23.5 -56.5t-56.5 -23.5zM240 384q0 -7 5 -11.5t11.5 -4.5
t11 4.5t4.5 11.5v48q0 7 -4.5 11.5t-11 4.5t-11.5 -4.5t-5 -11.5v-48zM144 256q0 -7 -4.5 -11.5t-11.5 -4.5h-48q-7 0 -11.5 4.5t-4.5 11.5t4.5 11.5t11.5 4.5h48q7 0 11.5 -4.5t4.5 -11.5zM384 240h48q7 0 11.5 4.5t4.5 11.5t-4.5 11.5t-11.5 4.5h-48q-6 0 -11 -4.5
t-5 -11.5t5 -11.5t11 -4.5zM155 335l-34 34q-5 4 -5 11t5 11.5t11.5 4.5t10.5 -5l35 -34q4 -4 4 -11t-4.5 -11.5t-11 -4.5t-11.5 5zM391 143l-34 34q-5 4 -11.5 4t-11 -4.5t-4.5 -11t4 -11.5l34 -34q5 -5 11.5 -5t11.5 5t5 11.5t-5 11.5zM155 178q4 4 11 4t11.5 -4.5
t4.5 -11t-5 -11.5l-34 -34q-4 -5 -11 -5t-11.5 5t-4.5 11.5t5 11.5zM335 334q5 -4 11.5 -4t11.5 4l34 34q4 5 4 11.5t-4.5 11.5t-11 5t-11.5 -5l-34 -34q-4 -5 -4 -11.5t4 -11.5z" />
</svg>
