<?xml version="1.0" standalone="no"?>
<!DOCTYPE svg PUBLIC "-//W3C//DTD SVG 1.1//EN" "http://www.w3.org/Graphics/SVG/1.1/DTD/svg11.dtd" >
<svg xmlns="http://www.w3.org/2000/svg" xmlns:xlink="http://www.w3.org/1999/xlink" version="1.1" viewBox="-10 0 522 512">
   <path fill="currentColor"
d="M400 144h-64v-64q0 -7 -4.5 -11.5t-11.5 -4.5t-11.5 4.5t-4.5 11.5v64h-96v-64q0 -7 -4.5 -11.5t-11.5 -4.5t-11.5 4.5t-4.5 11.5v64h-64q-7 0 -11.5 4.5t-4.5 11.5t4.5 11.5t11.5 4.5h16v64q0 44 27 78.5t69 45.5v52q0 13 9.5 22.5t22.5 9.5t22.5 -9.5t9.5 -22.5v-52
q42 -11 69 -45.5t27 -78.5v-64h16q7 0 11.5 -4.5t4.5 -11.5t-4.5 -11.5t-11.5 -4.5z" />
</svg>
