<?xml version="1.0" standalone="no"?>
<!DOCTYPE svg PUBLIC "-//W3C//DTD SVG 1.1//EN" "http://www.w3.org/Graphics/SVG/1.1/DTD/svg11.dtd" >
<svg xmlns="http://www.w3.org/2000/svg" xmlns:xlink="http://www.w3.org/1999/xlink" version="1.1" viewBox="-10 0 522 512">
   <path fill="currentColor"
d="M256 384q-35 0 -64.5 -17t-46.5 -46.5t-17 -64.5t17 -64.5t46.5 -46.5t64.5 -17t64.5 17t46.5 46.5t17 64.5t-17 64.5t-46.5 46.5t-64.5 17zM256 160q-3 0 -5.5 2.5t-2.5 5.5v80h-80q-3 0 -5.5 2.5t-2.5 5.5t2.5 5.5t5.5 2.5h80v80q0 3 2.5 5.5t5.5 2.5t5.5 -2.5
t2.5 -5.5v-80h80q3 0 5.5 -2.5t2.5 -5.5t-2.5 -5.5t-5.5 -2.5h-80v-80q0 -3 -2.5 -5.5t-5.5 -2.5zM256 64q-52 0 -96 26t-70 70t-26 96t26 96t70 70t96 26t96 -26t70 -70t26 -96t-26 -96t-70 -70t-96 -26zM256 416q-43 0 -80 -21.5t-58.5 -58.5t-21.5 -80t21.5 -80
t58.5 -58.5t80 -21.5t80 21.5t58.5 58.5t21.5 80t-21.5 80t-58.5 58.5t-80 21.5z" />
</svg>
