<?xml version="1.0" standalone="no"?>
<!DOCTYPE svg PUBLIC "-//W3C//DTD SVG 1.1//EN" "http://www.w3.org/Graphics/SVG/1.1/DTD/svg11.dtd" >
<svg xmlns="http://www.w3.org/2000/svg" xmlns:xlink="http://www.w3.org/1999/xlink" version="1.1" viewBox="-10 0 522 512">
   <path fill="currentColor"
d="M411 393q-32 -14 -72 -42q-53 -36 -96 -80q-46 -45 -82 -98q-29 -42 -42 -72q-2 -4 1.5 -8t8.5 -3q16 4 36 15q64 35 136 106.5t107 135.5q10 20 14 37q1 5 -3 8t-8 1zM429 336q-37 -68 -111 -141.5t-141 -110.5q-37 -20 -65 -20h-5q-7 1 -12 3q-15 7 -23 26.5t-8 57.5
q0 46 18 92q18 43 49 83l-64 97q-6 8 -1.5 16.5t14.5 8.5l106 -1q17 0 26 -14l16 -24q68 39 134 39q54 0 79 -25q8 -8 7 -30q-2 -26 -19 -57z" />
</svg>
