<?xml version="1.0" standalone="no"?>
<!DOCTYPE svg PUBLIC "-//W3C//DTD SVG 1.1//EN" "http://www.w3.org/Graphics/SVG/1.1/DTD/svg11.dtd" >
<svg xmlns="http://www.w3.org/2000/svg" xmlns:xlink="http://www.w3.org/1999/xlink" version="1.1" viewBox="-10 0 522 512">
   <path fill="currentColor"
d="M371 356q-48 12 -115 12t-114 -12t-46 -28.5t48 -28t112 -11.5t112 11.5t48 28t-45 28.5zM447 224q-8 -19 -57 -32.5t-118 -15.5v-72q0 -4 -4.5 -6t-11.5 -2t-11.5 2t-4.5 6v72q-69 2 -118 15.5t-57 32.5q-1 3 -1 6v116q0 3 1 6q7 18 54 32q56 16 137 16t138 -16
q46 -14 53 -32q1 -3 1 -6v-116q0 -3 -1 -6z" />
</svg>
