<?xml version="1.0" standalone="no"?>
<!DOCTYPE svg PUBLIC "-//W3C//DTD SVG 1.1//EN" "http://www.w3.org/Graphics/SVG/1.1/DTD/svg11.dtd" >
<svg xmlns="http://www.w3.org/2000/svg" xmlns:xlink="http://www.w3.org/1999/xlink" version="1.1" viewBox="-10 0 522 512">
   <path fill="currentColor"
d="M346 96q-13 -13 -34 -22q-23 -10 -46 -10h-20q-22 1 -44 11q-19 8 -32 21q-25 25 -26 71v8q40 9 111 9t113 -9v-4q0 -22 -2 -36q-5 -25 -20 -39zM368 192q0 38 -25 79q-13 23 -36 49l-3 3q-19 5 -40 5h-13q-28 0 -43 -5l-10 -11q-54 -63 -54 -120q40 9 112 9h12
q62 -1 100 -9zM304 336l-8 68q-1 6 -3 10l-10 12l-9 14q-4 7 -10 8h-14q-7 0 -11 -6l-9 -15l-9 -11q-3 -4 -5 -10l-8 -70q23 3 48 3q22 0 42 -2z" />
</svg>
