<?xml version="1.0" encoding="UTF-8"?>
<svg width="718px" height="791px" viewBox="0 0 718 791" version="1.1" xmlns="http://www.w3.org/2000/svg" xmlns:xlink="http://www.w3.org/1999/xlink">
    <title>Path 2</title>
    <g id="Page-1" stroke="none" stroke-width="1" fill="none" fill-rule="evenodd">
        <g id="Group" transform="translate(0.4261, 1)" fill="#D8D8D8" stroke="#000000" stroke-width="0.5">
            <path d="M173.68862,441.764832 C268.938226,441.764832 347.378299,520.204905 347.378299,615.45407 C347.378299,710.702881 267.645117,789.57405 173.68862,789.57405 C78.4401614,789.57405 5.68434189e-14,711.133888 5.68434189e-14,615.45407 C5.68434189e-14,520.204905 78.4401614,441.764832 173.68862,441.764832 Z M410.302831,-5.68434189e-14 C451.677902,-5.68434189e-14 474.951214,6.03391968 502.965336,34.9104092 L681.826568,217.650085 C711.565425,248.250426 716.736977,268.93752 716.736977,316.34651 L716.736977,616.747002 C716.736977,690.015346 680.533459,726.649518 608.127306,726.649518 L367.636041,726.651262 C378.765331,707.49544 387.152575,686.617395 392.223389,664.588504 L605.110346,664.586911 C637.434538,664.586911 654.243188,646.916336 654.243188,615.885077 L654.243188,321.518946 L467.193443,321.518946 C422.37067,321.518946 399.5281,298.676376 399.5281,253.853603 L399.5281,62.0621651 L254.284169,62.0621651 C221.529235,62.0621651 204.720585,79.733182 204.720585,110.764265 L204.722914,393.517326 C194.569595,392.081724 184.208136,391.338882 173.68862,391.338882 C163.16955,391.338882 152.808517,392.081675 142.655597,393.517185 L142.657714,109.90278 C142.657714,36.6342601 178.430313,-5.68434189e-14 250.836467,-5.68434189e-14 Z M173.68862,507.706324 C160.328554,507.706324 151.277675,516.757203 151.277675,530.118151 L151.277675,593.473514 L87.9219595,593.473514 C74.5612761,593.473514 65.5104848,602.093386 65.5104848,615.45407 C65.5104848,629.24576 74.5612761,637.865544 87.9219595,637.865544 L151.277675,637.865544 L151.277675,701.221083 C151.277675,714.581855 160.328554,723.632646 173.68862,723.632646 C187.049568,723.632646 196.100448,714.581855 196.100448,701.221083 L196.100448,637.865544 L259.455722,637.865544 C272.81667,637.865544 281.867549,629.24576 281.867549,615.45407 C281.867549,602.093386 272.81667,593.473514 259.455722,593.473514 L196.100448,593.473514 L196.100448,530.118151 C196.100448,516.757203 187.049568,507.706324 173.68862,507.706324 Z M457.281079,73.6992623 L457.281079,246.09495 C457.281079,258.162789 462.452632,263.335225 474.520472,263.335225 L642.60609,263.335225 L457.281079,73.6992623 Z" id="Path-2"></path>
        </g>
    </g>
</svg>