<?xml version="1.0" standalone="no"?>
<!DOCTYPE svg PUBLIC "-//W3C//DTD SVG 1.1//EN" "http://www.w3.org/Graphics/SVG/1.1/DTD/svg11.dtd" >
<svg xmlns="http://www.w3.org/2000/svg" xmlns:xlink="http://www.w3.org/1999/xlink" version="1.1" viewBox="-10 0 522 512">
   <path fill="currentColor"
d="M390 295q-56 25 -134 25t-134 -25q-37 -17 -50.5 -39.5t-1.5 -45t49 -40t87 -23.5t100 0t87 23.5t49 40t-1.5 45t-50.5 39.5zM155 245q42 11 101 11t100 -11l10 -3q28 -9 33 -21t-14 -23l-4 -2q-6 -3 -13 -5l-9 -3q-43 -12 -103.5 -12t-102.5 12l-9 3q-33 11 -32 25.5
t34 25.5zM390 344q-56 24 -134 24t-134 -24q-29 -13 -44 -29.5t-14 -34.5q18 16 45 28q62 28 147 28t147 -28q27 -12 45 -28q1 18 -14 34.5t-44 29.5z" />
</svg>
