<?xml version="1.0" standalone="no"?>
<!DOCTYPE svg PUBLIC "-//W3C//DTD SVG 1.1//EN" "http://www.w3.org/Graphics/SVG/1.1/DTD/svg11.dtd" >
<svg xmlns="http://www.w3.org/2000/svg" xmlns:xlink="http://www.w3.org/1999/xlink" version="1.1" viewBox="-10 0 522 512">
   <path fill="currentColor"
d="M410 293q-43 -14 -110 -80q-29 -29 -51 -59t-29 -51q-2 -4 1 -7.5t8 -2.5q11 2 25 9q24 11 44 25q23 16 47 40.5t40 46.5q15 20 26 44q7 15 9 26q1 5 -2.5 8t-7.5 1zM353 360q-2 6 -8 6l-2 -1q-34 -10 -81 -52q-12 7 -40 20.5t-39 19.5q-17 10 -16 15q2 16 -6.5 19.5
t-24.5 -12t-12 -24.5t20 -6q5 1 15 -17q6 -10 19.5 -38.5t20.5 -40.5q-39 -47 -51 -78q-1 -3 0 -6.5t4 -4.5t6.5 0.5t4.5 4.5q7 20 28.5 49.5t49.5 56.5q65 66 106 79q4 1 5.5 4t0.5 6zM436 252q-23 -50 -74.5 -101.5t-100.5 -74.5q-39 -19 -58 -9l-4 3q-26 17 -47 38
q-72 72 -85 145q-15 81 48 144q43 42 95 50q48 6 100 -18q49 -22 95 -69q21 -20 37 -45l2 -3q11 -19 -8 -60z" />
</svg>
