<?xml version="1.0" standalone="no"?>
<!DOCTYPE svg PUBLIC "-//W3C//DTD SVG 1.1//EN" "http://www.w3.org/Graphics/SVG/1.1/DTD/svg11.dtd" >
<svg xmlns="http://www.w3.org/2000/svg" xmlns:xlink="http://www.w3.org/1999/xlink" version="1.1" viewBox="-10 0 522 512">
   <path fill="currentColor"
d="M365 214q-9 -8 -23.5 -13t-30.5 -7.5t-35 -2.5t-35.5 2.5t-28.5 7.5q-16 5 -25 13q-15 13 -15 30v8l-40 4v100q0 10 6 18t15 12l19 7v66q0 17 15 29q9 8 23.5 13.5t30.5 8t35 2.5t35.5 -2.5t29.5 -7.5q15 -5 24 -14q15 -12 15 -29v-215q0 -17 -15 -30zM333 479
q-11 4 -26 6.5t-31 2.5t-30.5 -2t-26 -6.5t-17.5 -9.5t-6 -11t6 -11.5t17 -9.5t26 -6t31 -2t30.5 2t26 6t17.5 9.5t6 11.5t-6 11t-17 9z" />
</svg>
