<?xml version="1.0" standalone="no"?>
<!DOCTYPE svg PUBLIC "-//W3C//DTD SVG 1.1//EN" "http://www.w3.org/Graphics/SVG/1.1/DTD/svg11.dtd" >
<svg xmlns="http://www.w3.org/2000/svg" xmlns:xlink="http://www.w3.org/1999/xlink" version="1.1" viewBox="-10 0 522 512">
   <path fill="currentColor"
d="M304 384l-8 39q-1 5 -6 9l-6 4l-8 6q-5 5 -13 6h-12q-9 0 -15 -6l-7 -6l-7 -4q-5 -4 -6 -10l-8 -38l9 1q18 1 39 1t39 -1zM313 331l-6 37l-13 1q-18 1 -38 1t-38 -1l-13 -1l-6 -37q28 5 57 5t57 -5zM256 64q52 0 96 17.5t70 47t26 63t-23.5 61.5t-63.5 46t-89 21v-104
l32 -32h-96l32 32v104q-47 -3 -86.5 -19.5t-63 -43.5t-26.5 -58v-11q1 -33 27.5 -61.5t70 -45.5t94.5 -17z" />
</svg>
