<?xml version="1.0" standalone="no"?>
<!DOCTYPE svg PUBLIC "-//W3C//DTD SVG 1.1//EN" "http://www.w3.org/Graphics/SVG/1.1/DTD/svg11.dtd" >
<svg xmlns="http://www.w3.org/2000/svg" xmlns:xlink="http://www.w3.org/1999/xlink" version="1.1" viewBox="-10 0 522 512">
   <path fill="currentColor"
d="M229 382l3 -3q18 -18 39 -7l4 3l12 10q10 8 20.5 11.5t20.5 3.5q23 0 42 -18l3 -3q4 -4 8 -6q17 -11 35 2l11 9q8 7 18 11l3 1v52h-384v-51q13 -5 24 -15l3 -3q8 -7 16 -10q14 -4 28 7l12 10q10 7 20 11q34 11 62 -15zM256 64q19 0 33 13t15 32v185q9 8 19 9h5
q12 0 22 -11q23 -23 53 -20q23 3 40 20q4 4 5 9v60l-5 -4q-8 -8 -19 -13.5t-24 -6.5h-10q-20 2 -37 17l-3 3q-19 19 -40 6l-7 -6q-18 -17 -41 -20q-29 -3 -53 20q-19 20 -41 5l-6 -5q-9 -9 -21.5 -14.5t-25.5 -5.5q-26 -1 -46 20l-5 4v-58q0 -6 5 -11q25 -25 56 -19l3 1
v-162q0 -7 -4.5 -11.5t-11 -4.5t-11 4t-5.5 10v2q0 7 -4.5 11.5t-11.5 4.5t-11.5 -4.5t-4.5 -11.5q0 -20 14 -34t33.5 -14t33.5 13t15 32v35h112v-32q0 -7 -4.5 -11.5t-11 -4.5t-11 4t-5.5 10v2q0 7 -4.5 11.5t-11.5 4.5t-11.5 -4.5t-4.5 -11.5q0 -20 14 -34t34 -14z
M272 256h-112v35l2 1q9 10 21 11h4q12 0 22 -11q27 -26 60 -18l3 1v-19zM272 176h-112v48h112v-48z" />
</svg>
