<?xml version="1.0" standalone="no"?>
<!DOCTYPE svg PUBLIC "-//W3C//DTD SVG 1.1//EN" "http://www.w3.org/Graphics/SVG/1.1/DTD/svg11.dtd" >
<svg xmlns="http://www.w3.org/2000/svg" xmlns:xlink="http://www.w3.org/1999/xlink" version="1.1" viewBox="-10 0 522 512">
   <path fill="currentColor"
d="M374 344q-23 17 -45.5 20t-31.5 -9.5t1 -33t33 -37t45.5 -19.5t31.5 9t-1 33t-33 37zM442 266l-140 -160q-11 -14 -38.5 -8t-55.5 28.5t-41 51t-2 42.5l14 20h-35q-2 -31 -8 -53.5t-14 -25.5q-1 -1 -3 -1h-30l-3 1q-9 3 -15 28q-7 28 -7 67t7 67q6 25 15 28l3 1h30
q2 0 3 -1q8 -3 14 -25.5t8 -53.5h57l79 113q14 19 47 14.5t66.5 -29.5t47.5 -55.5t1 -48.5z" />
</svg>
