<?xml version="1.0" standalone="no"?>
<!DOCTYPE svg PUBLIC "-//W3C//DTD SVG 1.1//EN" "http://www.w3.org/Graphics/SVG/1.1/DTD/svg11.dtd" >
<svg xmlns="http://www.w3.org/2000/svg" xmlns:xlink="http://www.w3.org/1999/xlink" version="1.1" viewBox="-10 0 522 512">
   <path fill="currentColor"
d="M256 64q-52 0 -96 26t-70 70t-26 96t26 96t70 70t96 26t96 -26t70 -70t26 -96t-26 -96t-70 -70t-96 -26zM256 96q43 0 80 21.5t58.5 58.5t21.5 80t-21.5 80t-58.5 58.5t-80 21.5t-80 -21.5t-58.5 -58.5t-21.5 -80t21.5 -80t58.5 -58.5t80 -21.5zM256 368q30 0 56 -15
t41 -41t15 -56t-15 -56t-41 -41t-56 -15t-56 15t-41 41t-15 56t15 56t41 41t56 15z" />
</svg>
