<?xml version="1.0" standalone="no"?>
<!DOCTYPE svg PUBLIC "-//W3C//DTD SVG 1.1//EN" "http://www.w3.org/Graphics/SVG/1.1/DTD/svg11.dtd" >
<svg xmlns="http://www.w3.org/2000/svg" xmlns:xlink="http://www.w3.org/1999/xlink" version="1.1" viewBox="-10 0 522 512">
   <path fill="currentColor"
d="M435 58q-19 -17 -65 -23q-24 -3 -52 -3h-2q-27 0 -51 3q-47 6 -65 22.5t-11 48.5q3 16 16 42l1 2q45 13 111.5 13t111.5 -13l1 -2q13 -25 16 -42q7 -32 -11 -48zM123 388l-7 -38q19 2 41 2t42 -2l-7 38q-1 4 -4 8l-8 7l-7 8q-4 5 -11 5h-10q-7 0 -11 -5l-8 -9l-6 -6
q-4 -4 -4 -8zM271 442l-10 -58q27 3 56.5 3t55.5 -3l-9 58q-1 6 -5 11l-11 9l-9 11q-6 7 -15 7h-13q-9 0 -15 -7l-11 -12l-9 -8q-4 -5 -5 -11zM214 171q45 10 103.5 10t103.5 -10q-17 52 -24 108q-6 40 -5 63q0 8 -5 13l-8 10q-29 3 -61.5 3t-61.5 -3l-9 -10q-4 -5 -4 -13
q1 -23 -5 -63q-7 -56 -24 -108zM203 189q-2 -6 -4 -13l-8 -21l-3 -7q-15 -32 -17 -52h-14q-20 0 -37 2q-34 5 -46.5 17t-8.5 35q3 13 12 31l1 1q31 10 79 10q25 0 46 -3zM157 208q25 0 50 -4l10 42q-10 45 -9 72q1 5 -3 9l-5 7q-20 2 -42.5 2t-42.5 -2l-6 -7q-3 -4 -3 -9
q1 -16 -3 -44q-5 -38 -17 -73q31 7 71 7z" />
</svg>
