<?xml version="1.0" standalone="no"?>
<!DOCTYPE svg PUBLIC "-//W3C//DTD SVG 1.1//EN" "http://www.w3.org/Graphics/SVG/1.1/DTD/svg11.dtd" >
<svg xmlns="http://www.w3.org/2000/svg" xmlns:xlink="http://www.w3.org/1999/xlink" version="1.1" viewBox="-10 0 522 512">
   <path fill="currentColor"
d="M366 336q-46 -33 -101.5 -88t-88.5 -102t-24 -57.5t56 22t104 89.5t89.5 104t22 56t-57.5 -24zM424 299q-33 -55 -94.5 -116.5t-116.5 -94.5q-52 -32 -69 -22q-37 30 -58.5 75.5t-21.5 94.5t20.5 91.5t56.5 72.5h-5q-10 0 -17 7t-7 17t7 17t17 7h126h4h10q48 0 94 -22
t76 -57q10 -18 -22 -70z" />
</svg>
