<?xml version="1.0" standalone="no"?>
<!DOCTYPE svg PUBLIC "-//W3C//DTD SVG 1.1//EN" "http://www.w3.org/Graphics/SVG/1.1/DTD/svg11.dtd" >
<svg xmlns="http://www.w3.org/2000/svg" xmlns:xlink="http://www.w3.org/1999/xlink" version="1.1" viewBox="-10 0 522 512">
   <path fill="currentColor"
d="M371 324q-48 12 -115 12t-114 -12t-46 -28.5t48 -28t112 -11.5t112 11.5t48 28t-45 28.5zM447 192q-8 -19 -57 -33q-56 -15 -134 -15t-134 15q-49 14 -57 33q-1 3 -1 6v68q0 51 1 54q7 18 54 32q56 16 137 16t138 -16q46 -14 53 -32q1 -3 1 -6v-116q0 -3 -1 -6z" />
</svg>
