<?xml version="1.0" standalone="no"?>
<!DOCTYPE svg PUBLIC "-//W3C//DTD SVG 1.1//EN" "http://www.w3.org/Graphics/SVG/1.1/DTD/svg11.dtd" >
<svg xmlns="http://www.w3.org/2000/svg" xmlns:xlink="http://www.w3.org/1999/xlink" version="1.1" viewBox="-10 0 532 512">
   <path fill="currentColor"
d="M452 259l-318 106q-5 2 -11 0l-62 -24q-4 -1 -3.5 -4.5t3.5 -4.5l318 -106q5 -2 10 0l63 23q3 2 3 5t-3 5zM502 171l-113 -42q-5 -2 -10 0l-107 36v-93q0 -4 -4.5 -6t-11.5 -2t-11.5 2t-4.5 6v103l-229 77q-5 2 -8 6t-3 10v73q0 6 3 10t7 6l113 42q5 2 10 0l368 -123
q5 -2 8 -6t3 -10v-73q0 -6 -3 -10t-7 -6z" />
</svg>
