<?xml version="1.0" standalone="no"?>
<!DOCTYPE svg PUBLIC "-//W3C//DTD SVG 1.1//EN" "http://www.w3.org/Graphics/SVG/1.1/DTD/svg11.dtd" >
<svg xmlns="http://www.w3.org/2000/svg" xmlns:xlink="http://www.w3.org/1999/xlink" version="1.1" viewBox="-10 0 522 512">
   <path fill="currentColor"
d="M256 368q7 0 11.5 4.5t4.5 11.5t-4.5 11.5t-11.5 4.5t-11.5 -4.5t-4.5 -11.5t4.5 -11.5t11.5 -4.5zM352 336q7 0 11.5 4.5t4.5 11.5t-4.5 11.5t-11.5 4.5t-11.5 -4.5t-4.5 -11.5t4.5 -11.5t11.5 -4.5zM160 336q7 0 11.5 4.5t4.5 11.5t-4.5 11.5t-11.5 4.5t-11.5 -4.5
t-4.5 -11.5t4.5 -11.5t11.5 -4.5zM256 176h4q32 2 54 25t22 55.5t-23.5 56t-56.5 23.5t-56.5 -23.5t-23.5 -56.5q0 -24 14 -45q10 -15 26.5 -24.5t35.5 -10.5h4zM256 203v106q22 0 37.5 -15.5t15.5 -37t-14.5 -37t-35.5 -16.5h-3zM384 240q7 0 11.5 5t4.5 11.5t-4.5 11
t-11.5 4.5t-11.5 -4.5t-4.5 -11t4.5 -11.5t11.5 -5zM128 240q7 0 11.5 5t4.5 11.5t-4.5 11t-11.5 4.5t-11.5 -4.5t-4.5 -11t4.5 -11.5t11.5 -5zM160 144q7 0 11.5 5t4.5 11.5t-4.5 11t-11.5 4.5t-11.5 -4.5t-4.5 -11t4.5 -11.5t11.5 -5zM352 144q7 0 11.5 5t4.5 11.5
t-4.5 11t-11.5 4.5t-11.5 -4.5t-4.5 -11t4.5 -11.5t11.5 -5zM256 112q7 0 11.5 4.5t4.5 11.5t-4.5 11.5t-11.5 4.5t-11.5 -4.5t-4.5 -11.5t4.5 -11.5t11.5 -4.5z" />
</svg>
