<?xml version="1.0" standalone="no"?>
<!DOCTYPE svg PUBLIC "-//W3C//DTD SVG 1.1//EN" "http://www.w3.org/Graphics/SVG/1.1/DTD/svg11.dtd" >
<svg xmlns="http://www.w3.org/2000/svg" xmlns:xlink="http://www.w3.org/1999/xlink" version="1.1" viewBox="-10 0 522 512">
   <path fill="currentColor"
d="M304 416l-8 39q-1 5 -6 9l-6 4l-8 6q-6 6 -15 6h-10q-9 0 -15 -6l-7 -6l-7 -4q-5 -4 -6 -10l-8 -38l9 1q18 1 39 1t39 -1zM198 358q28 10 58 10t58 -10l-7 42l-13 1q-18 1 -38 1t-38 -1l-13 -1zM256 32q43 0 80 21.5t58.5 58.5t21.5 80q0 41 -19 76t-52 57t-73 26v-119
l32 -32h-96l32 32v119q-38 -4 -70.5 -24.5t-52 -53.5t-21.5 -72v-13q1 -43 23 -78.5t58 -56.5t79 -21z" />
</svg>
