<?xml version="1.0" standalone="no"?>
<!DOCTYPE svg PUBLIC "-//W3C//DTD SVG 1.1//EN" "http://www.w3.org/Graphics/SVG/1.1/DTD/svg11.dtd" >
<svg xmlns="http://www.w3.org/2000/svg" xmlns:xlink="http://www.w3.org/1999/xlink" version="1.1" viewBox="-10 0 522 512">
   <path fill="currentColor"
d="M352 176h-192q-7 0 -11.5 -4.5t-4.5 -11.5t4.5 -11.5t11.5 -4.5h192q7 0 11.5 4.5t4.5 11.5t-4.5 11.5t-11.5 4.5zM352 240h-192q-7 0 -11.5 -4.5t-4.5 -11.5t4.5 -11.5t11.5 -4.5h192q7 0 11.5 4.5t4.5 11.5t-4.5 11.5t-11.5 4.5zM352 304h-192q-7 0 -11.5 -4.5
t-4.5 -11.5t4.5 -11.5t11.5 -4.5h192q7 0 11.5 4.5t4.5 11.5t-4.5 11.5t-11.5 4.5zM352 368h-192q-7 0 -11.5 -4.5t-4.5 -11.5t4.5 -11.5t11.5 -4.5h192q7 0 11.5 4.5t4.5 11.5t-4.5 11.5t-11.5 4.5zM256 64q-52 0 -96 26t-70 70t-26 96t26 96t70 70t96 26t96 -26t70 -70
t26 -96t-26 -96t-70 -70t-96 -26z" />
</svg>
