<?xml version="1.0" standalone="no"?>
<!DOCTYPE svg PUBLIC "-//W3C//DTD SVG 1.1//EN" "http://www.w3.org/Graphics/SVG/1.1/DTD/svg11.dtd" >
<svg xmlns="http://www.w3.org/2000/svg" xmlns:xlink="http://www.w3.org/1999/xlink" version="1.1" viewBox="-10 0 522 512">
   <path fill="currentColor"
d="M365 24q-9 -8 -23.5 -13.5t-30.5 -8t-35 -2.5t-35.5 2.5t-28.5 7.5q-16 5 -25 14q-15 12 -15 29v66l-19 7q-9 4 -15 12t-6 18v100l41 -4q-1 -5 -1 -8q0 -17 15 -30q9 -8 23.5 -13t30.5 -7.5t35 -2.5t35.5 2.5t29.5 7.5q15 5 24 13q15 13 15 30v-191q0 -17 -15 -29z" />
</svg>
