<?xml version="1.0" standalone="no"?>
<!DOCTYPE svg PUBLIC "-//W3C//DTD SVG 1.1//EN" "http://www.w3.org/Graphics/SVG/1.1/DTD/svg11.dtd" >
<svg xmlns="http://www.w3.org/2000/svg" xmlns:xlink="http://www.w3.org/1999/xlink" version="1.1" viewBox="-10 0 522 512">
   <path fill="currentColor"
d="M135 267q7 -2 12.5 1.5t6.5 10t-2.5 12.5t-10 7t-12 -2.5t-7 -10t2.5 -12t10 -6.5zM213 250q7 -2 12.5 2t7 10.5t-2.5 12t-10 6.5t-12 -2.5t-7 -10t2.5 -12t9.5 -6.5zM291 233q7 -2 12.5 2t7 10.5t-2 12t-10 7t-12 -2.5t-7 -10.5t2 -12t9.5 -6.5zM370 216q6 -1 11.5 2.5
t7 10t-2 12t-10 7t-12 -2.5t-7 -10t2 -12t10.5 -7zM171 330l237 -51q13 -3 20 -14t4 -24q-7 -31 -33.5 -48t-57.5 -11l-237 52q-13 2 -20 13.5t-4 24.5q6 31 33 48t58 10zM400 416q-7 0 -11.5 -4.5t-4.5 -11.5t4.5 -11.5t11.5 -4.5t11.5 4.5t4.5 11.5t-4.5 11.5t-11.5 4.5z
M320 416q-7 0 -11.5 -4.5t-4.5 -11.5t4.5 -11.5t11.5 -4.5t11.5 4.5t4.5 11.5t-4.5 11.5t-11.5 4.5zM240 416q-7 0 -11.5 -4.5t-4.5 -11.5t4.5 -11.5t11.5 -4.5t11.5 4.5t4.5 11.5t-4.5 11.5t-11.5 4.5zM160 416q-7 0 -11.5 -4.5t-4.5 -11.5t4.5 -11.5t11.5 -4.5t11.5 4.5
t4.5 11.5t-4.5 11.5t-11.5 4.5zM432 352h-288q-29 0 -49 -13q-16 -10 -24 -27q-7 -13 -7 -24v80q0 33 23.5 56.5t56.5 23.5h288q7 0 11.5 -4.5t4.5 -11.5v-64q0 -7 -4.5 -11.5t-11.5 -4.5zM352 128q-7 0 -11.5 -4.5t-4.5 -11.5t4.5 -11.5t11.5 -4.5t11.5 4.5t4.5 11.5
t-4.5 11.5t-11.5 4.5zM272 128q-7 0 -11.5 -4.5t-4.5 -11.5t4.5 -11.5t11.5 -4.5t11.5 4.5t4.5 11.5t-4.5 11.5t-11.5 4.5zM192 128q-7 0 -11.5 -4.5t-4.5 -11.5t4.5 -11.5t11.5 -4.5t11.5 4.5t4.5 11.5t-4.5 11.5t-11.5 4.5zM112 128q-7 0 -11.5 -4.5t-4.5 -11.5t4.5 -11.5
t11.5 -4.5t11.5 4.5t4.5 11.5t-4.5 11.5t-11.5 4.5zM368 64h-288q-7 0 -11.5 4.5t-4.5 11.5v64q0 7 4.5 11.5t11.5 4.5h288q29 0 49 13q16 10 24 27q7 13 7 24v-80q0 -33 -23.5 -56.5t-56.5 -23.5z" />
</svg>
