<?xml version="1.0" standalone="no"?>
<!DOCTYPE svg PUBLIC "-//W3C//DTD SVG 1.1//EN" "http://www.w3.org/Graphics/SVG/1.1/DTD/svg11.dtd" >
<svg xmlns="http://www.w3.org/2000/svg" xmlns:xlink="http://www.w3.org/1999/xlink" version="1.1" viewBox="-10 0 522 512">
   <path fill="currentColor"
d="M365 55q12 6 20 16q15 18 15 43q0 19 -9 40q-17 39 -56.5 72t-81.5 43q-22 5 -42 2q-25 -4 -40 -22q-6 -7 -13 -22l-37 -83q-15 -27 -6 -60t37 -57q23 -19 50 -24.5t50 2.5l13 5zM316 203q34 -28 48 -60t-0.5 -48.5t-48.5 -8.5t-67.5 36t-47.5 59.5t0 48.5t48 9t68 -36z
" />
</svg>
