<?xml version="1.0" standalone="no"?>
<!DOCTYPE svg PUBLIC "-//W3C//DTD SVG 1.1//EN" "http://www.w3.org/Graphics/SVG/1.1/DTD/svg11.dtd" >
<svg xmlns="http://www.w3.org/2000/svg" xmlns:xlink="http://www.w3.org/1999/xlink" version="1.1" viewBox="-10 0 522 512">
   <path fill="currentColor"
d="M335 263q-2 -41 -15.5 -88t-30.5 -78q-18 -33 -33 -33t-33 33q-17 31 -30.5 78t-16.5 88q32 9 80 9t79 -9zM336 280q-33 8 -80 8t-80 -8v2q0 28 8 50q7 20 20 33q24 3 52 3t52 -3q13 -13 20 -33q8 -22 8 -50v-2zM223 422l-7 -40q19 2 40 2t40 -2l-7 40q0 4 -4 7l-7 7
l-7 7q-4 5 -10 5h-10q-6 0 -10 -5l-8 -8l-6 -6q-4 -3 -4 -7z" />
</svg>
