<?xml version="1.0" standalone="no"?>
<!DOCTYPE svg PUBLIC "-//W3C//DTD SVG 1.1//EN" "http://www.w3.org/Graphics/SVG/1.1/DTD/svg11.dtd" >
<svg xmlns="http://www.w3.org/2000/svg" xmlns:xlink="http://www.w3.org/1999/xlink" version="1.1" viewBox="-10 0 522 512">
   <path fill="currentColor"
d="M296 214q-17 -6 -40 -6t-40 6l-20 -138q60 8 120 0zM359 12q-42 -12 -103 -12t-103 12t-41 28.5t43 28.5l8 1l25 179q2 6 11 11.5t25 8.5v197q-25 5 -31 12q-1 2 -1 4v12q0 7 19 12.5t45.5 5.5t45 -5.5t18.5 -12.5v-12q0 -5 -8.5 -9t-23.5 -7v-197q16 -3 25 -8.5
t11 -11.5l25 -179l8 -1q42 -12 43 -28.5t-41 -28.5z" />
</svg>
