<?xml version="1.0" standalone="no"?>
<!DOCTYPE svg PUBLIC "-//W3C//DTD SVG 1.1//EN" "http://www.w3.org/Graphics/SVG/1.1/DTD/svg11.dtd" >
<svg xmlns="http://www.w3.org/2000/svg" xmlns:xlink="http://www.w3.org/1999/xlink" version="1.1" viewBox="-10 0 522 512">
   <path fill="currentColor"
d="M381 292l-115 42q-10 4 -20 0l-115 -42q-3 -2 -3 -5.5t3 -4.5l115 -40q10 -4 20 0l115 40q3 1 3 4.5t-3 5.5zM440 212l-174 -66q-10 -4 -20 0l-174 66q-3 2 -5.5 5.5t-2.5 8.5v60q0 10 8 14l174 66q10 4 20 0l174 -66q8 -4 8 -14v-60q0 -5 -2.5 -8.5t-5.5 -5.5z" />
</svg>
