<?xml version="1.0" standalone="no"?>
<!DOCTYPE svg PUBLIC "-//W3C//DTD SVG 1.1//EN" "http://www.w3.org/Graphics/SVG/1.1/DTD/svg11.dtd" >
<svg xmlns="http://www.w3.org/2000/svg" xmlns:xlink="http://www.w3.org/1999/xlink" version="1.1" viewBox="-11 0 534 512">
   <path fill="currentColor"
d="M134 431l32 -12q5 -2 8 -6.5t2 -9.5v-13l223 -84l28 11q2 1 4.5 1t5.5 -1l32 -12q5 -2 7.5 -6.5t2.5 -9.5v-130q1 -5 -2 -9.5t-8 -6.5l-10 -4l32 -12q12 -4 18 -16.5t1 -25.5q-2 -6 -6.5 -10.5t-10 -7.5t-12 -3t-12.5 2l-448 167q-12 5 -18 17t-1 25q3 10 11.5 16t19.5 6
q5 1 10 -1l6 -3v99q-1 5 2 9.5t8 6.5l64 24h5.5t5.5 -1v0v0zM145 361q-15 -9 -23.5 -24t-8.5 -32q-1 -5 0 -9l239 -93v75q0 6 3 10t8 6l-187 70q-16 5 -31 -3v0z" />
</svg>
