<?xml version="1.0" encoding="UTF-8" standalone="no"?>
<svg
   version="1.1"
   width="841.65717"
   height="840.70319"
   id="svg4"
   xmlns="http://www.w3.org/2000/svg"
   xmlns:svg="http://www.w3.org/2000/svg">
  <defs
     id="defs4" />
  <path
     d="M 1.7785141,381.65105 C -14.555301,552.24657 82.919601,728.86397 240.55871,799.20094 c 141.94515,67.62314 321.55856,49.00033 443.26784,-51.94905 33.63185,-27.44451 69.9357,-59.6246 80.78608,-103.14572 7.00552,-57.79096 -65.38665,-113.86843 -116.28621,-76.53097 -44.5845,29.95741 -75.25502,80.07639 -129.09908,95.82924 C 392.95046,715.47994 229.10356,652.5699 179.10837,523.12534 128.42388,406.58421 175.03798,254.97969 288.31359,193.8004 c 103.11631,-61.59886 248.55032,-42.05184 326.71482,51.08322 20.46513,25.05606 56.1516,70.77573 48.60549,94.76932 -129.00472,5.58414 -258.18691,-2.19747 -387.18165,3.83194 -69.86921,13.90329 -74.53689,133.02068 -4.34195,149.99641 69.13571,12.44291 139.54413,0.32132 209.23484,4.57298 102.38948,0.14807 204.8737,2.92755 307.17672,-2.66359 56.97692,-19.56087 58.52634,-91.3502 48.2227,-140.83641 C 807.82522,165.33856 636.86586,5.6505978 443.56741,0.78624277 218.65529,-13.291335 16.307757,163.5356 1.7785141,381.65105 Z M 532.08897,15.41846 c 3.55739,1.57122 -1.57121,-3.557399 0,0 z m 22,6 c 3.55739,1.57122 -1.57121,-3.557399 0,0 z m 13,4 c 3.55739,1.57122 -1.57121,-3.557399 0,0 z m 2,1 c 3.55739,1.57122 -1.57121,-3.557399 0,0 z m 77,38 c 1.57121,-3.557399 -3.55739,1.57122 0,0 z m 53,40 c 3.55739,1.57122 -1.57122,-3.55739 0,0 z m 34,34 c 3.55739,1.57122 -1.57122,-3.55739 0,0 z m -121,103 c -3.55739,-1.57122 1.57122,3.55739 0,0 z m -5,-4 c -3.55739,-1.57122 1.57122,3.55739 0,0 z m -57,-45 c -3.55739,-1.57122 1.57122,3.55739 0,0 z m -26,-13 c -3.55739,-1.57122 1.57122,3.55739 0,0 z m -195,-5 c -1.57122,3.55739 3.55739,-1.57122 0,0 z m 432,439 c 3.55739,1.57122 -1.57122,-3.55739 0,0 z m -169,190 c -1.57122,3.55739 3.55739,-1.57122 0,0 z m -296,17 c -3.55739,-1.57122 1.57122,3.55739 0,0 z m -174,-106 c -3.55739,-1.57122 1.57122,3.55739 0,0 z m -5,-5 c -3.55739,-1.57122 1.57122,3.55739 0,0 z m 64,-635 c 1.57121,-3.557399 -3.55739,1.57122 0,0 z m 73,-41 c 1.57121,-3.557399 -3.55739,1.57122 0,0 z m 11,-4 c 1.57121,-3.557399 -3.55739,1.57122 0,0 z m 243,-22.0000002 c -1.57121,3.5573992 3.55739,-1.57122 0,0 z m -384,112.0000002 c -1.57122,3.55739 3.55739,-1.57122 0,0 z m -2,2 c -1.57122,3.55739 3.55739,-1.57122 0,0 z m 717,256 c -1.57122,3.55739 3.55739,-1.57122 0,0 z m -24,103 c -1.57122,3.55739 3.55739,-1.57122 0,0 z m -54,178 c -1.57122,3.55739 3.55739,-1.57122 0,0 z m -329,181 c -1.57122,3.55739 3.55739,-1.57122 0,0 z"
     style="fill:#ffffff;fill-opacity:1;stroke-width:25.7357;paint-order:fill markers stroke"
     id="path4" />
</svg>
