<?xml version="1.0" standalone="no"?>
<!DOCTYPE svg PUBLIC "-//W3C//DTD SVG 1.1//EN" "http://www.w3.org/Graphics/SVG/1.1/DTD/svg11.dtd" >
<svg xmlns="http://www.w3.org/2000/svg" xmlns:xlink="http://www.w3.org/1999/xlink" version="1.1" viewBox="-10 0 522 512">
   <path fill="currentColor"
d="M122 217q56 -25 134 -25t134 25q37 17 50.5 39.5t1.5 45t-49 40t-87 23.5t-100 0t-87 -23.5t-49 -40t1.5 -45t50.5 -39.5zM357 267q-42 -11 -101 -11t-100 11l-21 7q-27 12 -22.5 26t40.5 24q43 12 103.5 12t102.5 -12q40 -11 41 -27t-37 -28zM122 168q56 -24 134 -24
t134 24q29 13 44 29.5t14 34.5q-18 -16 -45 -28q-62 -28 -147 -28t-147 28q-27 12 -45 28q-1 -18 14 -34.5t44 -29.5z" />
</svg>
