<?xml version="1.0" standalone="no"?>
<!DOCTYPE svg PUBLIC "-//W3C//DTD SVG 1.1//EN" "http://www.w3.org/Graphics/SVG/1.1/DTD/svg11.dtd" >
<svg xmlns="http://www.w3.org/2000/svg" xmlns:xlink="http://www.w3.org/1999/xlink" version="1.1" viewBox="-10 0 522 512">
   <path fill="currentColor"
d="M384 64h-256q-26 0 -45 19t-19 45v256q0 26 19 45t45 19h256q26 0 45 -19t19 -45v-256q0 -26 -19 -45t-45 -19zM256 400q-39 0 -72 -19.5t-52.5 -52.5t-19.5 -72t19.5 -72t52.5 -52.5t72 -19.5t72 19.5t52.5 52.5t19.5 72t-19.5 72t-52.5 52.5t-72 19.5zM144 267
q-1 -7 2.5 -13t8.5 -9q39 -21 101.5 -21t100.5 21q5 3 8.5 9t2.5 13q-5 43 -37 72t-75 29t-75 -29t-37 -72z" />
</svg>
