<?xml version="1.0" standalone="no"?>
<!DOCTYPE svg PUBLIC "-//W3C//DTD SVG 1.1//EN" "http://www.w3.org/Graphics/SVG/1.1/DTD/svg11.dtd" >
<svg xmlns="http://www.w3.org/2000/svg" xmlns:xlink="http://www.w3.org/1999/xlink" version="1.1" viewBox="-10 0 522 512">
   <path fill="currentColor"
d="M316 144l-26 -14q-2 -1 -2 -3.5t2 -2.5l27 -12l5 -29q0 -2 2.5 -2.5t3.5 0.5l20 22l28 -4q3 0 4 1.5t0 3.5l-14 25l12 26q1 3 0 4.5t-4 1.5l-28 -6l-21 20q-1 1 -3 1h-1q-2 -1 -2 -3zM444 202q2 0 3.5 2t0.5 4l-10 16l8 17q1 2 0 3.5t-4 1.5l-18 -4l-13 13q-1 1 -3 1h-1
q-2 -1 -2 -3l-3 -19l-16 -9q-2 -1 -2 -3t2 -3l17 -8l4 -18q0 -3 2 -3.5t4 1.5l12 14zM367 270q-1 -2 -3 -2l-19 3l-12 -14q-2 -1 -4 -0.5t-2 2.5l-4 18l-17 8q-2 1 -2 3.5t2 3.5l16 8l3 19q0 2 2 3h1q2 0 3 -1l13 -13l18 4q3 0 4 -1.5t0 -3.5l-8 -17l10 -16q1 -2 -1 -4z
M244 316q24 24 54.5 37t63.5 14q4 1 5.5 4.5t-1.5 6.5q-29 31 -69.5 45t-84.5 7q-57 -9 -98 -51.5t-49 -100.5q-6 -49 13 -92t56 -71.5t83 -34.5q4 0 6.5 3.5t0.5 6.5q-24 34 -30 75t7 81t43 70z" />
</svg>
