<?xml version="1.0" standalone="no"?>
<!DOCTYPE svg PUBLIC "-//W3C//DTD SVG 1.1//EN" "http://www.w3.org/Graphics/SVG/1.1/DTD/svg11.dtd" >
<svg xmlns="http://www.w3.org/2000/svg" xmlns:xlink="http://www.w3.org/1999/xlink" version="1.1" viewBox="-10 0 522 512">
   <path fill="currentColor"
d="M128 64h256q27 0 45.5 18.5t18.5 45.5v256q0 27 -18.5 45.5t-45.5 18.5h-256q-27 0 -45.5 -18.5t-18.5 -45.5v-256q0 -27 18.5 -45.5t45.5 -18.5zM144 96q-20 0 -34 14t-14 34v224q0 20 14 34t34 14h224q20 0 34 -14t14 -34v-224q0 -20 -14 -34t-34 -14h-224zM160 128h80
v256h-80q-13 0 -22.5 -9.5t-9.5 -22.5v-192q0 -13 9.5 -22.5t22.5 -9.5zM352 128q13 0 22.5 9.5t9.5 22.5v192q0 13 -9.5 22.5t-22.5 9.5h-80v-256h80z" />
</svg>
