<?xml version="1.0" standalone="no"?>
<!DOCTYPE svg PUBLIC "-//W3C//DTD SVG 1.1//EN" "http://www.w3.org/Graphics/SVG/1.1/DTD/svg11.dtd" >
<svg xmlns="http://www.w3.org/2000/svg" xmlns:xlink="http://www.w3.org/1999/xlink" version="1.1" viewBox="-10 0 522 512">
   <path fill="currentColor"
d="M302 123q-19 5 -46 5t-45.5 -5t-18 -11.5t19 -11t44.5 -4.5t45 4.5t19.5 11t-18.5 11.5zM399 239l-43 -148v-1q-4 -8 -19 -14t-40 -9q-40 -6 -80 0q-26 3 -41 9t-18 14l-45 149q-1 4 -1 6q3 19 35 32q35 13 93 15v76q-29 2 -50.5 8.5t-27.5 15.5q-2 3 -2 6v20q0 12 28 21
t68 9t68 -9t28 -21v-20q0 -11 -23 -19.5t-57 -10.5v-76q58 -2 93 -15q32 -13 35 -32q0 -2 -1 -6z" />
</svg>
