<?xml version="1.0" standalone="no"?>
<!DOCTYPE svg PUBLIC "-//W3C//DTD SVG 1.1//EN" "http://www.w3.org/Graphics/SVG/1.1/DTD/svg11.dtd" >
<svg xmlns="http://www.w3.org/2000/svg" xmlns:xlink="http://www.w3.org/1999/xlink" version="1.1" viewBox="-10 0 522 512">
   <path fill="currentColor"
d="M382 353q-21 28 -52 44.5t-67 18.5h-10q-43 -2 -79 -23.5t-57 -58t-21 -79.5v-10q1 -12 5 -21q10 -24 32.5 -37t49.5 -10t47 27t21 52q0 38 27 64t64 26q16 0 31 -5q6 -2 9.5 2.5t-0.5 9.5zM256 64q-52 0 -96 26t-70 70t-26 96t26 96t70 70t96 26t96 -26t70 -70t26 -96
t-26 -96t-70 -70t-96 -26z" />
</svg>
